<?xml version="1.0" standalone="no"?>
<!DOCTYPE svg PUBLIC "-//W3C//DTD SVG 20010904//EN"
 "http://www.w3.org/TR/2001/REC-SVG-20010904/DTD/svg10.dtd">
<svg version="1.0" xmlns="http://www.w3.org/2000/svg"
 width="200.000000pt" height="200.000000pt" viewBox="0 0 200.000000 200.000000"
 preserveAspectRatio="xMidYMid meet">

<g transform="translate(0.000000,200.000000) scale(0.100000,-0.100000)"
fill="#000000" stroke="none">
<path d="M893 1536 c-179 -58 -264 -211 -265 -471 0 -251 108 -335 415 -323
97 4 132 9 172 27 113 50 157 132 157 296 -1 304 -125 473 -355 482 -51 2 -98
-2 -124 -11z"/>
<path d="M922 599 c-149 -19 -257 -74 -372 -189 -69 -68 -94 -102 -127 -170
-38 -78 -73 -185 -73 -224 0 -15 60 -16 650 -16 590 0 650 1 650 16 0 39 -35
146 -73 224 -56 116 -178 240 -287 293 -121 59 -247 82 -368 66z"/>
</g>
</svg>
