<?xml version="1.0" standalone="no"?>
<!DOCTYPE svg PUBLIC "-//W3C//DTD SVG 20010904//EN"
 "http://www.w3.org/TR/2001/REC-SVG-20010904/DTD/svg10.dtd">
<svg version="1.0" xmlns="http://www.w3.org/2000/svg"
 width="300.000000pt" height="300.000000pt" viewBox="0 0 512.000000 512.000000"
 preserveAspectRatio="xMidYMid meet">

<g transform="translate(0.000000,512.000000) scale(0.100000,-0.100000)"
fill="#000000" stroke="none">
<path d="M1775 5108 c-49 -5 -141 -20 -204 -34 -381 -85 -713 -267 -986 -539
-298 -299 -488 -670 -562 -1100 -23 -139 -23 -471 0 -610 74 -430 261 -797
561 -1098 466 -468 1135 -675 1781 -551 228 44 498 150 680 268 39 25 74 46
80 46 5 0 345 -335 755 -745 649 -648 749 -745 775 -745 25 0 62 33 247 218
185 185 218 222 218 247 0 26 -97 126 -745 775 -410 410 -745 750 -745 755 0
6 21 42 46 80 85 130 176 333 226 505 95 325 102 696 19 1022 -92 365 -265
671 -526 933 -427 427 -1014 634 -1620 573z m520 -488 c712 -152 1215 -769
1215 -1490 0 -405 -159 -787 -446 -1074 -353 -354 -855 -510 -1349 -421 -523
94 -972 473 -1153 975 -202 559 -65 1174 354 1594 236 236 512 375 855 431
124 20 395 13 524 -15z"/>
</g>
</svg>
